<?xml version="1.0" encoding="UTF-8"?>
<svg width="28px" height="57px" viewBox="0 0 28 57" version="1.1" xmlns="http://www.w3.org/2000/svg" xmlns:xlink="http://www.w3.org/1999/xlink">
    <!-- Generator: Sketch 49.2 (51160) - http://www.bohemiancoding.com/sketch -->
    <title>Path 3</title>
    <desc>Created with Sketch.</desc>
    <defs></defs>
    <g id="Page-1" stroke="none" stroke-width="1" fill="none" fill-rule="evenodd">
        <g id="MacBook-Pro-13-in" transform="translate(-1105.000000, -2600.000000)" fill="#FFFFFF">
            <g id="Group-7" transform="translate(152.000000, 2454.000000)">
                <path d="M940.743915,162.100412 L940.743915,162.100412 C942.989873,159.292965 947.035179,158.723391 949.969021,160.801529 L962.705051,169.822883 C966.293131,172.36444 971.120398,172.264039 974.599699,169.575488 L985.677219,161.015586 C988.489184,158.842704 992.523956,159.325463 994.743915,162.100412 L994.743915,162.100412 C996.879283,164.769622 996.446519,168.664503 993.777309,170.799871 C993.722602,170.843636 993.667156,170.88647 993.610995,170.928353 L974.941752,184.851178 C971.530187,187.395396 966.882115,187.501655 963.357849,185.115998 L942.046403,170.689788 C939.342412,168.859395 938.634221,165.183549 940.464615,162.479558 C940.552643,162.349517 940.645817,162.223035 940.743915,162.100412 Z" id="Path-3" transform="translate(967.774087, 174.326325) rotate(-90.000000) translate(-967.774087, -174.326325) "></path>
            </g>
        </g>
    </g>
</svg>