<?xml version="1.0" encoding="UTF-8"?>
<svg width="29px" height="57px" viewBox="0 0 29 57" version="1.1" xmlns="http://www.w3.org/2000/svg" xmlns:xlink="http://www.w3.org/1999/xlink">
    <!-- Generator: Sketch 49.2 (51160) - http://www.bohemiancoding.com/sketch -->
    <title>Path 3</title>
    <desc>Created with Sketch.</desc>
    <defs></defs>
    <g id="Page-1" stroke="none" stroke-width="1" fill="none" fill-rule="evenodd">
        <g id="MacBook-Pro-13-in" transform="translate(-154.000000, -2600.000000)" fill="#FFFFFF">
            <g id="Group-7" transform="translate(152.000000, 2454.000000)">
                <path d="M-11.7038465,162.100412 L-11.7038465,162.100412 C-9.45788878,159.292965 -5.41258233,158.723391 -2.47874041,160.801529 L10.2572889,169.822883 C13.8453695,172.36444 18.6726368,172.264039 22.1519373,169.575488 L33.2294573,161.015586 C36.0414224,158.842704 40.076194,159.325463 42.2961535,162.100412 L42.2961535,162.100412 C44.4315217,164.769622 43.9987572,168.664503 41.3295469,170.799871 C41.2748401,170.843636 41.2193942,170.88647 41.1632331,170.928353 L22.4939901,184.851178 C19.0824255,187.395396 14.4343538,187.501655 10.9100872,185.115998 L-10.4013587,170.689788 C-13.1053498,168.859395 -13.8135402,165.183549 -11.9831462,162.479558 C-11.8951184,162.349517 -11.8019447,162.223035 -11.7038465,162.100412 Z" id="Path-3" transform="translate(15.326325, 174.326325) rotate(90.000000) translate(-15.326325, -174.326325) "></path>
            </g>
        </g>
    </g>
</svg>