<?xml version="1.0" encoding="UTF-8"?>
<svg width="25px" height="25px" viewBox="0 0 25 25" version="1.1" xmlns="http://www.w3.org/2000/svg" xmlns:xlink="http://www.w3.org/1999/xlink">
    <!-- Generator: Sketch 49.1 (51147) - http://www.bohemiancoding.com/sketch -->
    <title>Path 5</title>
    <desc>Created with Sketch.</desc>
    <defs></defs>
    <g id="Page-1" stroke="none" stroke-width="1" fill="none" fill-rule="evenodd">
        <g id="MacBook-Pro-13-in" transform="translate(-1142.000000, -40.000000)" fill="#FFFFFF">
            <path class="loginicon" d="M1152,56 L1145.96799,55.9999868 C1145.28633,55.9999868 1144.73374,55.4473965 1144.73374,54.7657418 C1144.73374,54.4877958 1144.82756,54.2179862 1145,54 C1145,54 1145,54 1145,54 C1146.5828,51.9991495 1146.78616,49.9622755 1147,49 C1148.33333,43 1150.83333,40 1154.5,40 C1158.16667,40 1160.66667,43 1162,49 C1162.19388,49.8724574 1162.70293,52.5513317 1164,54 C1164,54 1164,54 1164,54 L1164,54 C1164.44197,54.4936274 1164.40009,55.2520786 1163.90646,55.694048 C1163.68645,55.8910345 1163.40152,55.9999539 1163.10621,55.9999539 L1157,56 L1156.99999,56.3216363 C1156.99999,57.2845678 1157.68616,58.1107992 1158.63272,58.287632 C1161.68806,58.8584213 1163.64382,59.4292107 1164.5,60 C1165.5,60.6666667 1166.33333,62.3333333 1167,65 L1142,65 C1142,62.3333333 1142.66667,60.6666667 1144,60 C1145.14226,59.4288714 1147.26308,58.8577429 1150.36246,58.2866143 L1150.36246,58.286594 C1151.31126,58.1117574 1152,57.2845015 1152,56.3197294 L1152,56 Z" id="Path-5"></path>
        </g>
    </g>
</svg>
